# xmcd CD database file
#
# Track frame offsets:
#	150
#	14975
#	32003
#	52526
#	78136
#	105248
#	127438
#	159437
#	185100
#	237276
#	249621
#	271411
#	291960
#	315136
#
# Disc length: 4555 seconds
#
# Revision: 0
# Processed by: cddbd v1.5.2PL0 Copyright (c) Steve Scherf et al.
# Submitted via: CDex 1.70beta2
#
DISCID=b911c90e
DTITLE=Nick The Nightfly - 100 Hits In Jazz - CD 6
DYEAR=2009
DGENRE=Jazz
TTITLE0=Sarah Vaughan - Summertime
TTITLE1=Lena Horne - Stormy Weather
TTITLE2=Paul Desmond - I've Got You Under My Skin
TTITLE3=Etta James - Come Rain Or Come Shine
TTITLE4=Sonny Rollins And Herbie Hancock - My One And Only Love
TTITLE5=Carmen McRae - How I Wish
TTITLE6=Paul Desmond Chet Baker And Jim Hall - You'd Be Nice To Come Home To
TTITLE7=Dave Brubeck And Paul Desmond -  The Song Is You
TTITLE8=Duke Ellington And His Orchestra - Sophisticated Lady
TTITLE9=Miles Davis - Corcovado
TTITLE10=The Dave Brubeck Trio And Gerry Mulligan - Lullaby De Mexico
TTITLE11=Patti Austin - Havana Candy
TTITLE12=Ray Barretto - Cocinando
TTITLE13=Gato Barbieri - Granada
EXTD=YEAR: 2009
EXTT0=
EXTT1=
EXTT2=
EXTT3=
EXTT4=
EXTT5=
EXTT6=
EXTT7=
EXTT8=
EXTT9=
EXTT10=
EXTT11=
EXTT12=
EXTT13=
PLAYORDER=
